<?xml version="1.0" encoding="utf-8"?>
<!-- Generator: Adobe Illustrator 24.1.0, SVG Export Plug-In . SVG Version: 6.00 Build 0)  -->
<svg version="1.1" xmlns="http://www.w3.org/2000/svg" xmlns:xlink="http://www.w3.org/1999/xlink" x="0px" y="0px"
	 viewBox="0 0 24 24" style="enable-background:new 0 0 24 24;" xml:space="preserve">
<style type="text/css">
	.st0{fill:none;}
</style>
<g id="Performance_Chart_05">
</g>
<g id="Website_Visibility_02">
</g>
<g id="Website_Email">
</g>
<g id="Performance_Chart_04">
</g>
<g id="Personalized_Email">
</g>
<g id="Website_Visibility_01">
</g>
<g id="Website_Speedtest">
</g>
<g id="Key_Word_Analysis">
</g>
<g id="Performance_Chart_03">
</g>
<g id="Advertisement">
</g>
<g id="Analytics_04">
</g>
<g id="Performance_Chart_02">
</g>
<g id="Website_Optimization_02">
</g>
<g id="Analytics_03">
</g>
<g id="Converting_Leads_to_Profit">
</g>
<g id="New_Strategy">
</g>
<g id="Performance_Chart_01">
</g>
<g id="Analytics_02">
</g>
<g id="Targeting_Website_Audience">
</g>
<g id="Bitcoin">
</g>
<g id="Community_Manager">
</g>
<g id="Conversation">
</g>
<g id="Website_Performance">
</g>
<g id="Top_Rank_Website">
</g>
<g id="Website_Ranking">
</g>
<g id="SEM">
</g>
<g id="Website_Optimization_01">
</g>
<g id="Clicking">
</g>
<g id="Website">
</g>
<g id="SEO_Solution">
</g>
<g id="Like">
</g>
<g id="Mobile_SEO_Strategy_03">
</g>
<g id="Mobile_SEO_Strategy_02">
</g>
<g id="Mobile_SEO_Strategy_01">
</g>
<g id="Buyer_Persona">
</g>
<g id="Exponential_Growth">
</g>
<g id="Good_Comment">
</g>
<g id="Target_Audience">
</g>
<g id="Emailing">
</g>
<g id="Chating">
</g>
<g id="Growth_Strategy_03">
</g>
<g id="Analytics_01">
</g>
<g id="Growth_Strategy_02">
</g>
<g id="Growth_Strategy_01">
</g>
<g id="Users_Interaction">
</g>
<g id="Marketing_Tools">
</g>
<g id="Statistical_Analysis">
</g>
<g id="Serching_a_Target">
</g>
<g id="Users_Growth">
</g>
<g id="Community">
	<g>
		<path d="M5.13,14.29c1.34,0,2.43-1.09,2.43-2.43c0-1.34-1.09-2.43-2.43-2.43c-1.34,0-2.43,1.09-2.43,2.43
			C2.7,13.2,3.79,14.29,5.13,14.29z M5.13,9.98c1.03,0,1.87,0.84,1.87,1.87c0,1.03-0.84,1.87-1.87,1.87c-1.03,0-1.87-0.84-1.87-1.87
			C3.26,10.82,4.1,9.98,5.13,9.98z"/>
		<path d="M18.87,14.29c1.34,0,2.43-1.09,2.43-2.43c0-1.34-1.09-2.43-2.43-2.43c-1.34,0-2.43,1.09-2.43,2.43
			C16.43,13.2,17.52,14.29,18.87,14.29z M18.87,9.98c1.03,0,1.87,0.84,1.87,1.87c0,1.03-0.84,1.87-1.87,1.87
			c-1.03,0-1.87-0.84-1.87-1.87C16.99,10.82,17.83,9.98,18.87,9.98z"/>
		<path d="M20.73,15.26H17c-0.4,0-0.77,0.12-1.09,0.32v-0.1c0-1.13-0.92-2.05-2.05-2.05h-3.72c-1.13,0-2.05,0.92-2.05,2.05v0.09
			c-0.32-0.2-0.69-0.31-1.09-0.31H3.27c-1.13,0-2.05,0.92-2.05,2.05v2.26c0,0.16,0.13,0.28,0.28,0.28h7.27
			c0.16,0,0.28-0.13,0.28-0.28v-1.55h5.9v1.55c0,0.16,0.13,0.28,0.28,0.28h7.27c0.16,0,0.28-0.13,0.28-0.28v-2.26
			C22.78,16.18,21.86,15.26,20.73,15.26z M8.49,19.3H1.78v-1.98c0-0.82,0.67-1.49,1.49-1.49H7c0.82,0,1.49,0.67,1.49,1.49V19.3z
			 M9.05,17.46v-0.15c0-0.46-0.15-0.88-0.4-1.22v-0.62c0-0.82,0.67-1.49,1.49-1.49h3.72c0.82,0,1.49,0.67,1.49,1.49v0.62
			c-0.25,0.34-0.4,0.76-0.4,1.21v0.15H9.05z M22.22,19.3h-6.71v-1.98c0-0.82,0.67-1.49,1.49-1.49h3.72c0.82,0,1.49,0.67,1.49,1.49
			V19.3z"/>
		<path d="M12,12.46c1.34,0,2.43-1.09,2.43-2.43c0-1.34-1.09-2.43-2.43-2.43c-1.34,0-2.43,1.09-2.43,2.43
			C9.56,11.36,10.66,12.46,12,12.46z M12,8.15c1.03,0,1.87,0.84,1.87,1.87c0,1.03-0.84,1.87-1.87,1.87c-1.03,0-1.87-0.84-1.87-1.87
			C10.13,8.99,10.97,8.15,12,8.15z"/>
		<path d="M5.49,7.4h0.62v0.62c0,0.16,0.13,0.28,0.28,0.28s0.28-0.13,0.28-0.28V7.4h0.62c0.16,0,0.28-0.13,0.28-0.28
			S7.44,6.84,7.29,6.84H6.67V6.22c0-0.16-0.13-0.28-0.28-0.28S6.11,6.07,6.11,6.22v0.62H5.49c-0.16,0-0.28,0.13-0.28,0.28
			S5.33,7.4,5.49,7.4z"/>
		<path d="M11.1,5.6h0.62v0.62c0,0.16,0.13,0.28,0.28,0.28s0.28-0.13,0.28-0.28V5.6h0.62c0.16,0,0.28-0.13,0.28-0.28
			s-0.13-0.28-0.28-0.28h-0.62V4.42c0-0.16-0.13-0.28-0.28-0.28s-0.28,0.13-0.28,0.28v0.62H11.1c-0.16,0-0.28,0.13-0.28,0.28
			S10.94,5.6,11.1,5.6z"/>
		<path d="M16.71,7.4h0.62v0.62c0,0.16,0.13,0.28,0.28,0.28s0.28-0.13,0.28-0.28V7.4h0.62c0.16,0,0.28-0.13,0.28-0.28
			s-0.13-0.28-0.28-0.28h-0.62V6.22c0-0.16-0.13-0.28-0.28-0.28s-0.28,0.13-0.28,0.28v0.62h-0.62c-0.16,0-0.28,0.13-0.28,0.28
			S16.56,7.4,16.71,7.4z"/>
	</g>
	<rect class="st0" width="24" height="24"/>
</g>
</svg>
