<?xml version="1.0" encoding="UTF-8"?>
<svg id="Symbol_with_Wordmark" data-name="Symbol with Wordmark" xmlns="http://www.w3.org/2000/svg" xmlns:xlink="http://www.w3.org/1999/xlink" viewBox="0 0 850 450">
  <defs>
    <style>
      .cls-1 {
        fill: url(#linear-gradient-2);
      }

      .cls-2 {
        letter-spacing: 0em;
      }

      .cls-3 {
        letter-spacing: 0em;
      }

      .cls-4 {
        letter-spacing: -.05em;
      }

      .cls-5 {
        fill: #182f4e;
      }

      .cls-5, .cls-6, .cls-7, .cls-8 {
        fill-rule: evenodd;
      }

      .cls-6 {
        fill: #2c583d;
      }

      .cls-9 {
        fill: url(#linear-gradient-3);
      }

      .cls-10 {
        clip-path: url(#clippath-1);
      }

      .cls-11 {
        letter-spacing: -.06em;
      }

      .cls-7 {
        fill: #fefefd;
      }

      .cls-12 {
        fill: #1a2f4d;
        font-family: PlayfairDisplay-Bold, 'Playfair Display';
        font-size: 49px;
        font-weight: 700;
      }

      .cls-13 {
        clip-path: url(#clippath-3);
      }

      .cls-14 {
        clip-rule: evenodd;
        fill: none;
      }

      .cls-8, .cls-15 {
        fill: #a18c46;
      }

      .cls-16 {
        letter-spacing: 0em;
      }

      .cls-17 {
        clip-path: url(#clippath-2);
      }

      .cls-18 {
        letter-spacing: -.03em;
      }

      .cls-19 {
        fill: url(#linear-gradient);
      }

      .cls-20 {
        clip-path: url(#clippath);
      }

      .cls-21 {
        letter-spacing: -.01em;
      }
    </style>
    <clipPath id="clippath">
      <path class="cls-14" d="M435.93,398.48h2.08c.62-4.98.53-7.91-.96-12.51-.63-1.96-1.3-3.53-2.05-5.17-.79-1.73-1.86-3.12-2.88-4.61-4.06-5.93-8.26-10.31-9.14-19.99-.41-4.45.19-8.45,2.02-12.33,1.77-3.74,3.19-6.4,5.18-9.52,1.9-2.97,4.19-5.49,5.91-8.53,1.14-2.01,3.85-8.36,5.93-8.47,1.93,12.68-10.71,22.79-7.61,39.95.63,3.5,2.39,10.78,4.82,11.49.52-1.39-.08-11.46.19-14.29.22-2.33,1.81-10.66,3.02-11.75l4.86,5.41c1.8,1.9,3.22,3.62,4.63,5.79,5.74,8.83,2.56,13.87,3.54,16.67,4.66-9.29,4.82-13.14-.54-22.6-.95-1.68-1.79-3.32-2.74-4.75-5.79-8.73-3.68-9.73-1.52-17.29,3.35,1.63,7.86,6.44,10.08,9.25.98,1.24,2,2.22,2.96,3.46,3.84,5,7.5,10.64,6.43,19.35-1.1,8.92-2.42,8.76-4.68,14.53-.58,1.49-1.32,3.2-2.1,4.58-1.48,2.62-2.61,6.08-3.25,9.62-.89,4.94.26,7.25.87,11.68h1.52c.09-7.66.87-13.62,6.17-18.69,1.29-1.24,2.34-3.37,4.19-3.94.93,1.66,1.4,2.59,2.51,4.13,1.47,2.01,1.37,2.1,3.75,3.29-.47-2.95-1.29-5.02-1.42-8.31-.13-3.16.32-6.01.73-8.92,1.01-7.17.48-11.47,0-18.45,6.79,3.87,11.02,8.27,13.7,15.9,1.26,3.58,2.27,7.99,2.51,12.27.18,3.26.15,10.98,2.35,12.22,3.43-6.94,3.64-15.35,3.68-22.96,2.89.77,9.4,3.21,12.02,4.66,1.89,1.04,3.56,2.04,5.13,3.15,1.56,1.1,3.13,2.54,4.79,3.45-.45-2.72-2.95-6.14-4.76-8.04-2.4-2.52-5.03-3.02-8.1-4.74-3.77-2.11-6.88-4.52-10.68-6.69-2.24-1.28-2.61-2.36-3.89-4.64-1.03-1.83-1.97-3.75-3.05-5.51-.92-1.5-2.81-3.91-3.26-5.29,5.78-.81,12.8,1.42,16.79,4.87.97.84,2.86,3.18,3.91,3.58.81-2.32-1.87-5.91-2.96-7.22-1.67-2.02-4.04-3.11-6.27-4.69-3.79-2.68-11.09-3.87-16.35-5.56-4.81-1.55-10.5-4.83-13.74-8.2-2.48-2.58-7.86-9.36-8.21-13.57,1.1.46,1.69,1.05,2.39,1.48,7.04,4.28,11.27,7.19,19.8,10.15l12.53,4.31c9.1,3.38,14.47,6.45,19.37,14.57,3.56,5.89,4.26,11.97,8.67,16.74,4.38,4.73,8.57,9.69,16.73,8.67-.49-1.22-1.96-1.67-2.96-2.39l-5.47-4.7c-3.35-3.45-3.95-3.87-5.83-9.4-.51-1.49-2.19-6.68-2.05-8.08,5.41-.38,5.82.03,9.95,1.78,7.63,3.24,18.54,11.37,26,7.71,1.35-.66.53-.07.92-.97-11-2.49-8.25-1.97-16.41-7.37-.8-.53-4.39-2.71-4.82-3.16.37-.85,1.25-.9,2.18-1.25,4.69-1.76,10.34-2.63,15.41-2.09,1.89.2,4.17,1.5,5.6,1.41.03-1.29-.94-1.82-1.79-2.4-3.05-2.09-6.16-2.72-9.94-3.14-6.3-.69-9.73.97-15.5,1.26-4.68.24-11.02-.86-14.77-2.59-1.98-.91-5.19-3.98-6.98-5.83-.89-.92-1.9-1.44-2.38-2.31,11.4-1.72,14.25-7.13,31.13.08-1.01-4.58-7.44-6.27-9.32-7.76,9.41-4.9,18.82-.18,25.71,5.75,6.09,5.24,16.44,10.81,24.74,6.58l.82-.56c-2.75-1.19-10.71-.07-16.55-5.94-3.01-3.02-8.51-8.13-12.3-10.37l.98-.54c5.1-1.66,17.36,1.01,22.48,1.3,4.19.23,7.95-.22,11.44-1.62,2.12-.85,6.05-2.83,7.75-4.6.05-.05.1-.12.15-.17l.29-.37c-2.74.82-3.52,1.26-6.62,1.84-17.52,3.3-34.73-7.36-52-1.44-13.81,4.73-32.05,12.95-46.55,7.74-2.27-.81-3.65-1.87-5.47-2.82,1.67-.43,5.13-.38,7.29-.72,19.04-2.97,17.16-5.39,31.37-9.54,2.23-.65,4.33-1.19,6.78-1.51,2.56-.33,5.14-.29,7.65-.66-2.1-2.28-11.44-2.59-15.55-2.42-5.69.23-10.19,1.47-15.48,2.47-20.88,3.96-38.01-2.76-47.82-21.23-5.53-10.42-5.54-25.94-7.02-28.88l-.66,1.02c-.17.36-.29.72-.45,1.14-3.87,10.21-8.59,20.95-15.37,29.26-.91,1.12-2.34,2.85-3.26,3.63,1.09-2.03,2.79-4.1,4.04-6.05l3.62-6.82c2.39-4.88,4.25-9.49,6.13-14.74,4.33-12.1,3.61-26.28,12.42-39.69,1.29-1.97,3.22-4.07,5.04-5.39,4.66-3.37,8.35-5.46,15.99-3.16,11.84,3.56,9.88,19.66,17.17,19.38,1.92-.08,1.46-1.34,3.2-2.22,3.82,1.35,4.84,11.74,10.44,12.03,2.46.12,3.34-2.01,4.28-3.5,3.71-.3,12.14,3.94,13.51-.72,1.69-5.75-5.33-10.13-5.4-11.92.55-1.58,1.81-2.15,1.67-4.49-.35-5.93-11.19-4.71-13.68-5.99.25-2.07,2.78-3.57.08-6.03-3.82-3.48-15.31-.61-20.56.61l-1.13.39c.7,1.13,9.62,6.3,10.84,7.17,2.51,1.77,5.56,3.62,7.78,5.86.72.72,1.62,1.64,2.26,2.11-.68-.39-1.16-.7-1.93-1.1-2.9-1.49-11.1-6.71-13.81-8.65-3.67-2.62-8.04-5.14-12.39-6.87-1.59-.63-3.57-.75-5.18-1.45.54-1.1,3.04-1.76,4.16-2.2,1.61-.63,3.11-1.13,4.8-1.65,3.34-1.03,6.69-1.87,10.39-2.43,9.21-1.4,23.58-.13,29.74,7.7,2.54,3.23,9.14,12.44,11.58,14.07,1.21.81,3.25,1.82,4.96.7,1.35-.89,1.45-2.79,2.77-3.86,2.11-.74,9.2,7.68,11.53,9.31,2.48,1.73,5.59,1.9,7.36-.87,1.66-2.6.2-6.54,4.36-6.36,5.2.23,14.31.76,14.03-6.93-.22-6.07-7.99-6.78-11.25-9.88-.12-2.28,1.89-3.44.63-6.61-2.66-6.7-15.19.31-19.05-.2.07-2.33,1.46-6.11-2.17-7.74-2.83-1.27-13.11,4.16-16.24,5.35-1.64.62-7.86,2.04-8.43,2.53,1.81,1.4,5.44,2.13,7.84,3.1,2.85,1.15,5.07,2.42,7.89,3.37,7.12,2.39,5.04.85,12.16,4.4,1.38.69,3.27.88,4.14,1.46-7.61-.06-17.18-3.91-24.2-6.57-7.3-2.76-15.08-6.22-22.97-8.03,1.35-.22,15.03-7.76,16.97-8.95,1.1-.67,2.46-1.82,3.65-2.76,5.28-4.17,5.95-5.35,15.16-3.79,3.62.61,6.55,2.23,9.94,3.19,6.83,1.95,13.01,6.13,20.46,5.72,7.44-.41,2.6-5.88,3.73-7.76,1.57-1.43,19.73,3.72,19.54-5.02-.06-2.59-2.36-4.22-2.49-6.16.3-1.65,7.81-5.41,9.97-11.49,2.8-7.89-7.11-8.44-12.06-7.24-4.66,1.13-4.19,1.56-6.26-2.79-.64-1.35-1.02-2.26-2.49-2.88-1.43-.6-2.94-.48-4.25.16-3.8,1.88-5.11,5.44-7.75,8.29-3.77,4.07-2.63,2.3-5.78-1.36-2.44-2.83-7.24,1.71-8.58,3.57-.19.27-.52.65-.71.89-1.68,2.2-2.81,5.45-4.38,7.65-3.04,4.28-4.46,5.59-8.9,8.47-.67.43-1.6.81-2.22,1.24,4.08-.27,7.82-.34,11.76-1.05,3.56-.65,7.16-1.51,10.66-2.44,3.47-.93,6.18-2.48,9.56-3.54,3.29-1.03,7.1-2,10.31-2.86l-1.01.63c-2.77,1.49-4.82,3.31-8.07,4.5-3.48,1.28-6.89,2.88-10.37,4.07-5.79,1.97-12.99,2.28-19.23,1.9-2.48-.15-4.06-.64-6.22-.97.54-1.27,1.82-2.78,2.64-3.94,2.96-4.22,5.51-8.47,7.77-13.09,1.87-3.81,4.45-10.45,6.28-14.57,2.1-4.71,4.79-9.05,7.31-13.54,1.61-2.87,3.45-5.79,5.61-8.29l4.5-5.93c.47-.59.98-1.01,1.65-1.83,1.64-2.02,4.76-5.5,6.91-6.88-1.62,2.24-2.94,4.95-4.72,7.23-1.69,2.16-3.26,4.81-5.04,6.99-2.53,3.09-4.58,6.01-6.48,9.57-2.58,4.84-6.8,10.89-7.89,16.4,3.06-1.53,5.89-3.56,9.18-4.69,3.33-1.14,7.49-1.91,11.22-2.73,3.04-.66,7.88-1.98,9.46-4.15,3.49-4.79-2.08-7.03-3.46-8.37.16-2.35,5.18-3.82,7.08-4.57,2.31-.91,6.34-2.27,8.15-3.64,4.63-3.5,2.48-8.42-1.86-11.13-1.14-.71-3.01-1.69-2.11-3.25,1.53-2.66,2.75-2.93,4.28-7.5,2.58-7.72-1.52-14.28-9.76-10.56-1.47.67-2.54,1.3-3.89,2-1.24.65-2.26,2.02-3.74,2.16-.74-.81-1.05-1.68-1.82-2.41-.27-.26-.24-.18-.57-.5-5.09-4.81-9.57,2.66-10.81,7.09-.46,1.66-1.27,5.67-2.15,6.9l-.4-.38c-3.42-4.1-7.59-6.86-10.41.55-2.63,6.9-.84,16.01-2.11,18.15-1.86-1.69-7.24-3.55-7.78,3.89-.72,10.05,4.55,15.53.53,26.08-1.41,3.7-3.03,7.29-4.86,10.12-2.93,4.56-6.26,8.61-10.15,12.31-5.11,4.86-11.71,8.88-18.26,11.66-1.81.77-3.75,1.2-5.35,2.04,1.17-2.19,5.92-8.39,7.85-10.49.6-.65,1.42-1.39,1.84-1.9,1.37-1.64,2.27-2,4.16-3.32l4.54-2.67c1.88-1.08,2.93-1.6,4.66-2.85,2.17-1.58,4.53-4.79,1.56-7.06-1.98-1.51-4.55-.92,1.31-5.56,2.65-2.1,7.44-5.75,5.31-9.61-1.4-2.54-2.53-1.95-5.28-2.97-.31-2.84.53-5.69.12-8.97-1.21-9.63-8.8-4.42-12.41.73-.69.99-1.12,1.9-1.91,2.88-2.09-.01-6.11-4.89-8.31,2.41-1.3,4.3-.29,9.27-.42,13.77-2.39-.52-1.96-1.53-5.21-1.19-2.17,2.84-1.09,8.98-.1,12.69.95,3.6,2.51,6.41,3.26,9.89l.64,1.44c3.19-3.62,7.09-14.77,9.9-20,.56-1.05,1.27-2.1,1.82-3.27.51-1.1,1.12-2.54,1.61-3.41-.64,3.69-3.23,8.8-4.46,12.63-1.4,4.32-3.32,8.12-5.23,11.86-3.22,6.33-10.04,14.69-17.05,17.16-3.22,1.13-10.92,1.39-14.91,2.19-7.67,1.54-19.29,4.55-25.56,8.68-3.81,2.51-6.4,4.67-9.79,7.39-.11-3.37,1.34-8.68,2.36-11.64.53-1.52,1.29-3.59,1.98-4.94,5.13-9.95,16.35-14.44,24.08-21.9.78-.75,1.22-1.25,1.86-1.88,2.63-2.55,4.18-4.89,6-8.17,2.97-5.37,5.59-15.55,6.97-21.45.83-3.54,2.79-22.9,2.01-25.8-.55-2.04-2.59-2.4-4.41-1.13-1.26.88-2.09,2.79-2.62,4.65-1.21,4.25-.44,12.9-5.71,22.59-1.79,3.3-6.58,9.13-9.13,11.99-2.17,2.43-4.53,4.9-7.63,6.53-.8.42-1.3.81-2.31,1.16-.36.13-1.13.38-1.46.45l-1.17-.02c-.07-.02-.16-.07-.21-.09-1.94-.66,3.09-7.56,4.28-8.77l1-1.15c6.58-7.52,6.1-15.14,2.06-14.91-2.39.13-6.85,6.35-8.82,7.89l-5.88,5.1c-1.05.83-1.84,1.44-2.98,2.36l-2.25,1.75c-.47.39-.47.37-.91.7-2.7,2.02-4.61,4.56-6.83,7.07-.43.49-.7.93-1.14,1.54-.75,1.06-1.39,2.2-2.16,3.46-9.47,15.64-3.49,31.05-4.79,48.19-.53,6.91-2.23,12.07-4.24,17.92-1.91,5.55-3.49,11-5.85,16.06-2.44,5.22-3.82,10.82-5.15,17.09-1.43,6.74-.29,9.23-3.06,18.84-1.43,4.94-4.51,11.17-7.03,15.15-6.3,9.93-15.98,14.79-27.95,16.1-7.53.82-13.75-.65-21.11-.45-3.96.1-14.38.67-18.03,3.38-.41.31-.18.09-.49.46,25.55-.78,21,7.19,52.13,6.96-.36.58-4.1,2.89-4.99,3.36-1.62.87-4.43,1.93-6.41,2.41-14.59,3.56-27.87-4.93-44.13-6.01-10.91-.72-20.47,2.13-29.79,5.08-9.4,2.98-21.21,3.42-29.54-.91,1.1,2.25,6.71,4.98,9.23,5.93,8.87,3.35,17.11.11,26.15-1.27,5.05-.77,8.92-1.58,14.31-1.15-1.57,2.2-3.86,3.68-5.56,5.83-1.47,1.86-4.07,4.14-5.84,5.92-3.89,3.91-4.37,5.1-10.36,7.01-1.26.4-3.65.68-4.58,1.58,8.84,1.56,19.89-2.69,24.72-9.77,2.82-4.14,11.38-9.33,17.15-9.22,1.94.04,6.14.46,7.47,1.15-3.04,1.32-4.53,2.67-6.44,4.59-1.15,1.16-4.2,4.6-4.59,6.58,1.59-.67,3-3.09,6.17-4.46,9.75-4.23,16.69-2.71,26.66-.9-1.58,2.06-4.25,6.85-5.9,8.27-5.92,5.09-16.13,4.84-23.67,4.22-3.97-.33-10.69.09-11.25,3.51,3.78.98,13.67,1.12,16.86,3.93-.4,1-11.18,9.03-14.03,10.53-1.78.94-3.74,1.74-5.71,2.56,4.1,3.61,15.26-2.86,18.86-5.17,2.74-1.76,4.5-3.61,7.61-5.2,2.63-1.34,6.21-3.68,9.69-3.63-.16,6.22-2.43,15.4-6.27,19.6l-2.48,2.59c-1.01.92-1.67,1.42-2.88,2.19-.86.55-2.75,1.28-3.16,2.19,3.48,1.32,10.07-2.95,11.9-4.41,3.63-2.88,4.92-4.82,6.79-10.09.74-2.09,1.74-3.81,2.39-5.88,1.05-3.37,2.59-9.97,4.07-12.78,2.06-3.9,9.99-9.52,13.88-11.51,8.15-4.15,20.35-9,27-15.25,1.52-1.43,2.82-2.92,4.62-4.1-1.48,7.84-4.2,12.44-9.55,17.35-3.67,3.37-8.45,6.92-12.82,9.09-2.25,1.12-4.73,1.78-7.01,2.89-3.69,1.8-5.63,3.42-7.65,6.79-.65,1.08-1.63,2.87-.62,3.76.61.49.14.37.87,0,1.03-.52,2.06-1.64,3.05-2.33,4.29-3.02,9.13-5.48,14.76-6.17l-9.13,17.67c-1.19,1.91-2.8,2.83-4.89,4.2-2.01,1.32-3.08,2.67-4.86,3.97-.97.71-1.75,1.18-2.68,1.86-3.32,2.43-8.54,9.83-8.13,14.49,2.56-2.63,1.29-6.25,14.64-13.34,1.3-.69,4.87-2.72,6.06-3.05.76,4.11,1.29,7.89,2.32,11.85.52,2,2.83,9.23,3.67,10.45,1.55-1.22,1.15-3.61,1.17-5.58.03-2.24,0-4.45-.01-6.68-.04-4.55.21-8.15,1.21-12.38.6-2.54,2.71-7.39,4.11-9.5,1.18-1.77,4.87-6.78,6.04-7.42.5,3.17.03,4.51.98,8.86,2.63,12.07,5.06,10.23,3.83,25.6,1.87-.21,3.09-1.89,3.83-3.25.47-.86.85-1.44,1.21-2.28.4-.93.49-1.84.82-2.62,1.57.32,3.37,2.85,4.39,4.03,4.71,5.46,7.19,8.5,7.89,16.88"/>
    </clipPath>
    <clipPath id="clippath-1">
      <path class="cls-14" d="M427.21,127.07c.57-.34,1.42-3.77,2.21-5.51.86-1.91,1.6-3.54,2.58-5.46.86-1.69,1.83-3.31,2.94-5.03,1.1-1.7,2.24-3.08,3.42-4.65l3.42-4.3c.34-.4.52-.67.83-1.06l11.26-10.72c-5.95,6.55-4.29,4.76-9.71,12.56-.81,1.16-1.4,2.31-2.18,3.43-.78,1.11-1.47,2.24-2.18,3.45-3.79,6.5-8.59,16.05-10.33,23.34-.98,4.08-3.04,16.73-.95,20.18,2.25-7.56,2.15-11.33,6.33-17.49.77-1.14.81-1.29,1.73-2.29,1.67-1.81,1.06-1.51,3.1-2.76,5.67-3.47,9.91-4.02,14.72-7.22,1.88-1.25,3.85-2.73,5.41-4.47l2.62-3.27c3.46-4.66,5.59-11.22,6.77-17.32.84-4.31.77-10.14.93-14.69.18-4.95,1.36-10.44,1.29-15.06-5.6.06-16.42,4.17-20.87,6.07-3.39,1.44-7.64,3.83-10.46,6.1-3.68,2.96-7.2,6.56-9.85,10.48-.59.87-.69,1.35-1.26,2.21-4.01,6.06-4.94,14.95-4.04,22.19.26,2.09,1.57,9.66,2.28,11.28"/>
    </clipPath>
    <linearGradient id="linear-gradient" x1="450.17" y1="152.03" x2="444.84" y2="61.01" gradientUnits="userSpaceOnUse">
      <stop offset="0" stop-color="#2c583d"/>
      <stop offset="1" stop-color="#a18c46"/>
    </linearGradient>
    <clipPath id="clippath-2">
      <path class="cls-14" d="M414.62,106.2c.91-7.07-1.83-17.24-4.73-23.53-.55-1.18-.8-2.17-1.44-3.37-.64-1.2-1.39-2.27-1.81-3.31l3.44,4.88c3.83,5.82,5.61,10.58,7.3,17.9.48-.76.76-2.11,1.12-3.1,1.31-3.59,2.78-6.05,2.85-10.79.07-4.67-2.47-10.53-4.45-13.46l-4.11-4.73-5.01-4.09c-1.66-.99-10.56-6.04-12.05-5.73-2.22.47-1.74,14.17-1.63,16.25.34,6.03,1.49,9.7,4.33,13.52,4.61,6.18,5.68,5.24,9.62,8.29,6.56,5.08,5.7,9.37,6.56,11.27"/>
    </clipPath>
    <linearGradient id="linear-gradient-2" x1="411.73" y1="154.28" x2="406.4" y2="63.26" gradientUnits="userSpaceOnUse">
      <stop offset="0" stop-color="#2c583d"/>
      <stop offset="1" stop-color="#a18c46"/>
    </linearGradient>
    <clipPath id="clippath-3">
      <path class="cls-14" d="M422.66,138.91l.13-.37c.15-1.7-3.88-9.1-6.5-11.2-.74-.6-.91-.87-1.55-1.39l-.88-.74c-.5-.45-.27-.27-.87-.72-2.26-1.71-4.55-3.57-7.03-5.28-1.07-.73-6.99-4.63-7.26-5.08,4.1,1.44,8.71,4.72,12.15,7.17.84.6,1.57.96,2.39,1.61,1.11.88,3.59,3.03,4.67,3.45.21-4.45-2.2-10.24-4.11-12.85-5.42-7.38-14.7-9.76-23.72-10.59-8.82-.8-9.99-.92-6.48,6.53,3.04,6.43,3.7,10.35,10.05,15.66,1.27,1.07,3.55,2.48,5.27,3.28,7.51,3.51,14.65.65,20.27,5.4,1.8,1.53,2.21,2.94,3.47,5.12"/>
    </clipPath>
    <linearGradient id="linear-gradient-3" x1="403.52" y1="154.76" x2="398.19" y2="63.74" gradientUnits="userSpaceOnUse">
      <stop offset="0" stop-color="#2c583d"/>
      <stop offset="1" stop-color="#a18c46"/>
    </linearGradient>
  </defs>
  <g>
    <path class="cls-6" d="M435.93,398.48h2.08c.62-4.98.53-7.91-.96-12.51-.63-1.96-1.3-3.53-2.05-5.17-.79-1.73-1.86-3.12-2.88-4.61-4.06-5.93-8.26-10.31-9.14-19.99-.41-4.45.19-8.45,2.02-12.33,1.77-3.74,3.19-6.4,5.18-9.52,1.9-2.97,4.19-5.49,5.91-8.53,1.14-2.01,3.85-8.36,5.93-8.47,1.93,12.68-10.71,22.79-7.61,39.95.63,3.5,2.39,10.78,4.82,11.49.52-1.39-.08-11.46.19-14.29.22-2.33,1.81-10.66,3.02-11.75l4.86,5.41c1.8,1.9,3.22,3.62,4.63,5.79,5.74,8.83,2.56,13.87,3.54,16.67,4.66-9.29,4.82-13.14-.54-22.6-.95-1.68-1.79-3.32-2.74-4.75-5.79-8.73-3.68-9.73-1.52-17.29,3.35,1.63,7.86,6.44,10.08,9.25.98,1.24,2,2.22,2.96,3.46,3.84,5,7.5,10.64,6.43,19.35-1.1,8.92-2.42,8.76-4.68,14.53-.58,1.49-1.32,3.2-2.1,4.58-1.48,2.62-2.61,6.08-3.25,9.62-.89,4.94.26,7.25.87,11.68h1.52c.09-7.66.87-13.62,6.17-18.69,1.29-1.24,2.34-3.37,4.19-3.94.93,1.66,1.4,2.59,2.51,4.13,1.47,2.01,1.37,2.1,3.75,3.29-.47-2.95-1.29-5.02-1.42-8.31-.13-3.16.32-6.01.73-8.92,1.01-7.17.48-11.47,0-18.45,6.79,3.87,11.02,8.27,13.7,15.9,1.26,3.58,2.27,7.99,2.51,12.27.18,3.26.15,10.98,2.35,12.22,3.43-6.94,3.64-15.35,3.68-22.96,2.89.77,9.4,3.21,12.02,4.66,1.89,1.04,3.56,2.04,5.13,3.15,1.56,1.1,3.13,2.54,4.79,3.45-.45-2.72-2.95-6.14-4.76-8.04-2.4-2.52-5.03-3.02-8.1-4.74-3.77-2.11-6.88-4.52-10.68-6.69-2.24-1.28-2.61-2.36-3.89-4.64-1.03-1.83-1.97-3.75-3.05-5.51-.92-1.5-2.81-3.91-3.26-5.29,5.78-.81,12.8,1.42,16.79,4.87.97.84,2.86,3.18,3.91,3.58.81-2.32-1.87-5.91-2.96-7.22-1.67-2.02-4.04-3.11-6.27-4.69-3.79-2.68-11.09-3.87-16.35-5.56-4.81-1.55-10.5-4.83-13.74-8.2-2.48-2.58-7.86-9.36-8.21-13.57,1.1.46,1.69,1.05,2.39,1.48,7.04,4.28,11.27,7.19,19.8,10.15l12.53,4.31c9.1,3.38,14.47,6.45,19.37,14.57,3.56,5.89,4.26,11.97,8.67,16.74,4.38,4.73,8.57,9.69,16.73,8.67-.49-1.22-1.96-1.67-2.96-2.39l-5.47-4.7c-3.35-3.45-3.95-3.87-5.83-9.4-.51-1.49-2.19-6.68-2.05-8.08,5.41-.38,5.82.03,9.95,1.78,7.63,3.24,18.54,11.37,26,7.71,1.35-.66.53-.07.92-.97-11-2.49-8.25-1.97-16.41-7.37-.8-.53-4.39-2.71-4.82-3.16.37-.85,1.25-.9,2.18-1.25,4.69-1.76,10.34-2.63,15.41-2.09,1.89.2,4.17,1.5,5.6,1.41.03-1.29-.94-1.82-1.79-2.4-3.05-2.09-6.16-2.72-9.94-3.14-6.3-.69-9.73.97-15.5,1.26-4.68.24-11.02-.86-14.77-2.59-1.98-.91-5.19-3.98-6.98-5.83-.89-.92-1.9-1.44-2.38-2.31,11.4-1.72,14.25-7.13,31.13.08-1.01-4.58-7.44-6.27-9.32-7.76,9.41-4.9,18.82-.18,25.71,5.75,6.09,5.24,16.44,10.81,24.74,6.58l.82-.56c-2.75-1.19-10.71-.07-16.55-5.94-3.01-3.02-8.51-8.13-12.3-10.37l.98-.54c5.1-1.66,17.36,1.01,22.48,1.3,4.19.23,7.95-.22,11.44-1.62,2.12-.85,6.05-2.83,7.75-4.6.05-.05.1-.12.15-.17l.29-.37c-2.74.82-3.52,1.26-6.62,1.84-17.52,3.3-34.73-7.36-52-1.44-13.81,4.73-32.05,12.95-46.55,7.74-2.27-.81-3.65-1.87-5.47-2.82,1.67-.43,5.13-.38,7.29-.72,19.04-2.97,17.16-5.39,31.37-9.54,2.23-.65,4.33-1.19,6.78-1.51,2.56-.33,5.14-.29,7.65-.66-2.1-2.28-11.44-2.59-15.55-2.42-5.69.23-10.19,1.47-15.48,2.47-20.88,3.96-38.01-2.76-47.82-21.23-5.53-10.42-5.54-25.94-7.02-28.88l-.66,1.02c-.17.36-.29.72-.45,1.14-3.87,10.21-8.59,20.95-15.37,29.26-.91,1.12-2.34,2.85-3.26,3.63,1.09-2.03,2.79-4.1,4.04-6.05l3.62-6.82c2.39-4.88,4.25-9.49,6.13-14.74,4.33-12.1,3.61-26.28,12.42-39.69,1.29-1.97,3.22-4.07,5.04-5.39,4.66-3.37,8.35-5.46,15.99-3.16,11.84,3.56,9.88,19.66,17.17,19.38,1.92-.08,1.46-1.34,3.2-2.22,3.82,1.35,4.84,11.74,10.44,12.03,2.46.12,3.34-2.01,4.28-3.5,3.71-.3,12.14,3.94,13.51-.72,1.69-5.75-5.33-10.13-5.4-11.92.55-1.58,1.81-2.15,1.67-4.49-.35-5.93-11.19-4.71-13.68-5.99.25-2.07,2.78-3.57.08-6.03-3.82-3.48-15.31-.61-20.56.61l-1.13.39c.7,1.13,9.62,6.3,10.84,7.17,2.51,1.77,5.56,3.62,7.78,5.86.72.72,1.62,1.64,2.26,2.11-.68-.39-1.16-.7-1.93-1.1-2.9-1.49-11.1-6.71-13.81-8.65-3.67-2.62-8.04-5.14-12.39-6.87-1.59-.63-3.57-.75-5.18-1.45.54-1.1,3.04-1.76,4.16-2.2,1.61-.63,3.11-1.13,4.8-1.65,3.34-1.03,6.69-1.87,10.39-2.43,9.21-1.4,23.58-.13,29.74,7.7,2.54,3.23,9.14,12.44,11.58,14.07,1.21.81,3.25,1.82,4.96.7,1.35-.89,1.45-2.79,2.77-3.86,2.11-.74,9.2,7.68,11.53,9.31,2.48,1.73,5.59,1.9,7.36-.87,1.66-2.6.2-6.54,4.36-6.36,5.2.23,14.31.76,14.03-6.93-.22-6.07-7.99-6.78-11.25-9.88-.12-2.28,1.89-3.44.63-6.61-2.66-6.7-15.19.31-19.05-.2.07-2.33,1.46-6.11-2.17-7.74-2.83-1.27-13.11,4.16-16.24,5.35-1.64.62-7.86,2.04-8.43,2.53,1.81,1.4,5.44,2.13,7.84,3.1,2.85,1.15,5.07,2.42,7.89,3.37,7.12,2.39,5.04.85,12.16,4.4,1.38.69,3.27.88,4.14,1.46-7.61-.06-17.18-3.91-24.2-6.57-7.3-2.76-15.08-6.22-22.97-8.03,1.35-.22,15.03-7.76,16.97-8.95,1.1-.67,2.46-1.82,3.65-2.76,5.28-4.17,5.95-5.35,15.16-3.79,3.62.61,6.55,2.23,9.94,3.19,6.83,1.95,13.01,6.13,20.46,5.72,7.44-.41,2.6-5.88,3.73-7.76,1.57-1.43,19.73,3.72,19.54-5.02-.06-2.59-2.36-4.22-2.49-6.16.3-1.65,7.81-5.41,9.97-11.49,2.8-7.89-7.11-8.44-12.06-7.24-4.66,1.13-4.19,1.56-6.26-2.79-.64-1.35-1.02-2.26-2.49-2.88-1.43-.6-2.94-.48-4.25.16-3.8,1.88-5.11,5.44-7.75,8.29-3.77,4.07-2.63,2.3-5.78-1.36-2.44-2.83-7.24,1.71-8.58,3.57-.19.27-.52.65-.71.89-1.68,2.2-2.81,5.45-4.38,7.65-3.04,4.28-4.46,5.59-8.9,8.47-.67.43-1.6.81-2.22,1.24,4.08-.27,7.82-.34,11.76-1.05,3.56-.65,7.16-1.51,10.66-2.44,3.47-.93,6.18-2.48,9.56-3.54,3.29-1.03,7.1-2,10.31-2.86l-1.01.63c-2.77,1.49-4.82,3.31-8.07,4.5-3.48,1.28-6.89,2.88-10.37,4.07-5.79,1.97-12.99,2.28-19.23,1.9-2.48-.15-4.06-.64-6.22-.97.54-1.27,1.82-2.78,2.64-3.94,2.96-4.22,5.51-8.47,7.77-13.09,1.87-3.81,4.45-10.45,6.28-14.57,2.1-4.71,4.79-9.05,7.31-13.54,1.61-2.87,3.45-5.79,5.61-8.29l4.5-5.93c.47-.59.98-1.01,1.65-1.83,1.64-2.02,4.76-5.5,6.91-6.88-1.62,2.24-2.94,4.95-4.72,7.23-1.69,2.16-3.26,4.81-5.04,6.99-2.53,3.09-4.58,6.01-6.48,9.57-2.58,4.84-6.8,10.89-7.89,16.4,3.06-1.53,5.89-3.56,9.18-4.69,3.33-1.14,7.49-1.91,11.22-2.73,3.04-.66,7.88-1.98,9.46-4.15,3.49-4.79-2.08-7.03-3.46-8.37.16-2.35,5.18-3.82,7.08-4.57,2.31-.91,6.34-2.27,8.15-3.64,4.63-3.5,2.48-8.42-1.86-11.13-1.14-.71-3.01-1.69-2.11-3.25,1.53-2.66,2.75-2.93,4.28-7.5,2.58-7.72-1.52-14.28-9.76-10.56-1.47.67-2.54,1.3-3.89,2-1.24.65-2.26,2.02-3.74,2.16-.74-.81-1.05-1.68-1.82-2.41-.27-.26-.24-.18-.57-.5-5.09-4.81-9.57,2.66-10.81,7.09-.46,1.66-1.27,5.67-2.15,6.9l-.4-.38c-3.42-4.1-7.59-6.86-10.41.55-2.63,6.9-.84,16.01-2.11,18.15-1.86-1.69-7.24-3.55-7.78,3.89-.72,10.05,4.55,15.53.53,26.08-1.41,3.7-3.03,7.29-4.86,10.12-2.93,4.56-6.26,8.61-10.15,12.31-5.11,4.86-11.71,8.88-18.26,11.66-1.81.77-3.75,1.2-5.35,2.04,1.17-2.19,5.92-8.39,7.85-10.49.6-.65,1.42-1.39,1.84-1.9,1.37-1.64,2.27-2,4.16-3.32l4.54-2.67c1.88-1.08,2.93-1.6,4.66-2.85,2.17-1.58,4.53-4.79,1.56-7.06-1.98-1.51-4.55-.92,1.31-5.56,2.65-2.1,7.44-5.75,5.31-9.61-1.4-2.54-2.53-1.95-5.28-2.97-.31-2.84.53-5.69.12-8.97-1.21-9.63-8.8-4.42-12.41.73-.69.99-1.12,1.9-1.91,2.88-2.09-.01-6.11-4.89-8.31,2.41-1.3,4.3-.29,9.27-.42,13.77-2.39-.52-1.96-1.53-5.21-1.19-2.17,2.84-1.09,8.98-.1,12.69.95,3.6,2.51,6.41,3.26,9.89l.64,1.44c3.19-3.62,7.09-14.77,9.9-20,.56-1.05,1.27-2.1,1.82-3.27.51-1.1,1.12-2.54,1.61-3.41-.64,3.69-3.23,8.8-4.46,12.63-1.4,4.32-3.32,8.12-5.23,11.86-3.22,6.33-10.04,14.69-17.05,17.16-3.22,1.13-10.92,1.39-14.91,2.19-7.67,1.54-19.29,4.55-25.56,8.68-3.81,2.51-6.4,4.67-9.79,7.39-.11-3.37,1.34-8.68,2.36-11.64.53-1.52,1.29-3.59,1.98-4.94,5.13-9.95,16.35-14.44,24.08-21.9.78-.75,1.22-1.25,1.86-1.88,2.63-2.55,4.18-4.89,6-8.17,2.97-5.37,5.59-15.55,6.97-21.45.83-3.54,2.79-22.9,2.01-25.8-.55-2.04-2.59-2.4-4.41-1.13-1.26.88-2.09,2.79-2.62,4.65-1.21,4.25-.44,12.9-5.71,22.59-1.79,3.3-6.58,9.13-9.13,11.99-2.17,2.43-4.53,4.9-7.63,6.53-.8.42-1.3.81-2.31,1.16-.36.13-1.13.38-1.46.45l-1.17-.02c-.07-.02-.16-.07-.21-.09-1.94-.66,3.09-7.56,4.28-8.77l1-1.15c6.58-7.52,6.1-15.14,2.06-14.91-2.39.13-6.85,6.35-8.82,7.89l-5.88,5.1c-1.05.83-1.84,1.44-2.98,2.36l-2.25,1.75c-.47.39-.47.37-.91.7-2.7,2.02-4.61,4.56-6.83,7.07-.43.49-.7.93-1.14,1.54-.75,1.06-1.39,2.2-2.16,3.46-9.47,15.64-3.49,31.05-4.79,48.19-.53,6.91-2.23,12.07-4.24,17.92-1.91,5.55-3.49,11-5.85,16.06-2.44,5.22-3.82,10.82-5.15,17.09-1.43,6.74-.29,9.23-3.06,18.84-1.43,4.94-4.51,11.17-7.03,15.15-6.3,9.93-15.98,14.79-27.95,16.1-7.53.82-13.75-.65-21.11-.45-3.96.1-14.38.67-18.03,3.38-.41.31-.18.09-.49.46,25.55-.78,21,7.19,52.13,6.96-.36.58-4.1,2.89-4.99,3.36-1.62.87-4.43,1.93-6.41,2.41-14.59,3.56-27.87-4.93-44.13-6.01-10.91-.72-20.47,2.13-29.79,5.08-9.4,2.98-21.21,3.42-29.54-.91,1.1,2.25,6.71,4.98,9.23,5.93,8.87,3.35,17.11.11,26.15-1.27,5.05-.77,8.92-1.58,14.31-1.15-1.57,2.2-3.86,3.68-5.56,5.83-1.47,1.86-4.07,4.14-5.84,5.92-3.89,3.91-4.37,5.1-10.36,7.01-1.26.4-3.65.68-4.58,1.58,8.84,1.56,19.89-2.69,24.72-9.77,2.82-4.14,11.38-9.33,17.15-9.22,1.94.04,6.14.46,7.47,1.15-3.04,1.32-4.53,2.67-6.44,4.59-1.15,1.16-4.2,4.6-4.59,6.58,1.59-.67,3-3.09,6.17-4.46,9.75-4.23,16.69-2.71,26.66-.9-1.58,2.06-4.25,6.85-5.9,8.27-5.92,5.09-16.13,4.84-23.67,4.22-3.97-.33-10.69.09-11.25,3.51,3.78.98,13.67,1.12,16.86,3.93-.4,1-11.18,9.03-14.03,10.53-1.78.94-3.74,1.74-5.71,2.56,4.1,3.61,15.26-2.86,18.86-5.17,2.74-1.76,4.5-3.61,7.61-5.2,2.63-1.34,6.21-3.68,9.69-3.63-.16,6.22-2.43,15.4-6.27,19.6l-2.48,2.59c-1.01.92-1.67,1.42-2.88,2.19-.86.55-2.75,1.28-3.16,2.19,3.48,1.32,10.07-2.95,11.9-4.41,3.63-2.88,4.92-4.82,6.79-10.09.74-2.09,1.74-3.81,2.39-5.88,1.05-3.37,2.59-9.97,4.07-12.78,2.06-3.9,9.99-9.52,13.88-11.51,8.15-4.15,20.35-9,27-15.25,1.52-1.43,2.82-2.92,4.62-4.1-1.48,7.84-4.2,12.44-9.55,17.35-3.67,3.37-8.45,6.92-12.82,9.09-2.25,1.12-4.73,1.78-7.01,2.89-3.69,1.8-5.63,3.42-7.65,6.79-.65,1.08-1.63,2.87-.62,3.76.61.49.14.37.87,0,1.03-.52,2.06-1.64,3.05-2.33,4.29-3.02,9.13-5.48,14.76-6.17l-9.13,17.67c-1.19,1.91-2.8,2.83-4.89,4.2-2.01,1.32-3.08,2.67-4.86,3.97-.97.71-1.75,1.18-2.68,1.86-3.32,2.43-8.54,9.83-8.13,14.49,2.56-2.63,1.29-6.25,14.64-13.34,1.3-.69,4.87-2.72,6.06-3.05.76,4.11,1.29,7.89,2.32,11.85.52,2,2.83,9.23,3.67,10.45,1.55-1.22,1.15-3.61,1.17-5.58.03-2.24,0-4.45-.01-6.68-.04-4.55.21-8.15,1.21-12.38.6-2.54,2.71-7.39,4.11-9.5,1.18-1.77,4.87-6.78,6.04-7.42.5,3.17.03,4.51.98,8.86,2.63,12.07,5.06,10.23,3.83,25.6,1.87-.21,3.09-1.89,3.83-3.25.47-.86.85-1.44,1.21-2.28.4-.93.49-1.84.82-2.62,1.57.32,3.37,2.85,4.39,4.03,4.71,5.46,7.19,8.5,7.89,16.88"/>
    <g class="cls-20">
      <path class="cls-5" d="M371.46,305.66c25.38,2.97,48.24-6.15,65.73-23.53,2.22-2.2,5.23-8.33,6.68-11.08l26.07-51.31,150.48,79.91-129.98,133.27-201.24-52.51-28.84-72.45,78.33-8.29,32.76,5.98Z"/>
    </g>
    <path class="cls-6" d="M255.57,104.17c-1.72-.41-5.46-3.51-8.63-4.54-4.21-1.37-8.19-.94-9.27,2.9-1.14,4.06.39,7.6,2.03,10.47,1.01,1.77,2.68,4.26,4.12,5.82,3.8,4.14-1.78,2.72-3.68,7.87-1.25,3.38.74,5.9,3.03,7.22,3.58,2.06,13.74,3.64,15.25,6.59-.61,1.9-2.09,1.81-3.05,3.54-1.15,2.05.06,3.97,1.12,4.89,2.23,1.93,7.04,2.44,10.71,2.95,6.28.87,10.67,1.49,16.47,3.56,1.82.65,3.17,1.53,4.75,2.14-.42-2.13-3.18-5.93-4.61-7.87l-5.31-7.55c-.37-.54-.55-.85-.88-1.24-.41-.5-.64-.63-1.02-1.11-1.83-2.3-4.45-4.36-6.28-6.56l-10.15-11.24c-.96-1.03-1.57-1-2.21-2.15,1.52.84,2.91,2.19,4.35,3.22,1.87,1.35,9.68,8.61,11.71,10.75l13.86,16.08c4.21,5.76,9.61,17.79,14.33,23.11,2.58,2.91,4.11,5.35,6.96,8.01l3.8,3.79c-8.73,2.3-17.77,3.01-26.77,1.02-8.2-1.82-15.48-4.47-22.52-7.63,1.22-.51,7.28,2.02,9.29,2.65,5.57,1.75,30.1,5.58,33.37,3.23-.58-.85-3.04-2.15-3.9-2.74-2.75-1.92-4.79-3.96-6.94-6.43-3.45-3.95-8.14-14.2-14.74-9.79-2.9,1.94-1.63,5.61-5.7,2.42l-6.2-5.83c-2.81-2.79-7.8-4.4-9.99.3-.82,1.76-.73,4.54-3.01,4.7-2.46.18-5.27-.44-8.05-.13-11.01,1.22-9.47,10.96,1.38,15.61,1.93.83,3.78,1.58,5.01,2.74,1.78,1.67-.48,3.17-1.14,5.18-2.76,8.29,10.2,7.09,15.32,4.91,1.84-.78,4.16-1.72,6.06-.09.87,1.38-2.31,6.88,5.2,7.21,3.93.17,7.03-1.94,10.02-3.23,4.18-1.8,15.45-7.59,17.94-8.28,9.65-2.68,13.63.15,20.23,3.84,4.72,2.64,16.35,4.85,19.44,6.69-9.57,2.54-10.82,3.99-18.34,8.14-1.9,1.05-3.81,2.13-5.8,3.29-8.51,4.98-11.98,6.62-21.87,9.35-.39.11-3.2.97-3.35,1.04.46-.93,3.2-1.38,4.12-1.82l8.23-4.59c1.41-.82,2.72-1.31,4.28-2.14,2.39-1.28,14.28-7.76,16.36-9.24-.75-.71-2.9-.59-4.18-.79-5.4-.84-17.48-6.14-21.48-3.86-1.33.76-1.86,1.7-1.71,3.51.1,1.19.78,2.02.91,3.1.39,3.24-9.41-.72-14.66.68-1.7.45-3.88,2.1-4.03,4.04-.23,2.9,1.47,3.71,1.63,6.38-2.35.97-4.87,2.9-6.39,4.3-4.93,4.55-3.52,11.31,4.34,11.67,9.24.43,9.38-4.87,11.47,1.14.46,1.32.9,2.65,1.6,3.75,1.71,2.7,5.06,2.55,7.53.63,1.86-1.44,3.29-3.51,4.98-5.73.85-1.11,1.44-1.95,2.29-3.05.81-1.04,1.45-2.28,3.09-2.52,1.99,1.49,3.12,6.56,7.79,2.98,2.23-1.7,3.84-4.8,5.12-7.75,2.84-6.55,5.01-11.56,11.01-14.88,5.1-2.82,13.73-4.99,20.72-5.09,4.05-.06,8.07.5,11.74,1.23,2.36.47,8.24,1.96,10.09,2.85-8.34,3.62-9.86,4.95-16.95,10.28l-7.44,6.19c-1.52,1.34-6.14,5.48-7.5,6.05.43-.92,6.14-6.48,7.09-7.26,1.93-1.58,3.07-3.15,5.14-4.76,1.36-1.05,7.53-5.63,7.83-6.56-2.98-.47-12.55-.92-15.47-.55-10.21,1.28-5.07,6.72-4.98,8.95-3.94,1.28-14.29,1.52-13.27,7.4.32,1.84,2.26,3.03,2.77,4.37-.84,1.8-2.24,3.29-3.24,5.51-1.01,2.23-1.74,5.22.12,7.07,1.44,1.44,5.22,1.4,7.31.35,1.7-.85,3.88-3.08,6.03-2.96,2.14,4.76,5.74,5.02,8.48.59,1.45-2.35,3.7-9.68,4.66-10.61,1.04.48,5.97,5.36,7.98-2.93,1.14-4.71,1.71-7.76,4.04-10.95,5.25-7.2,13.34-8.95,20.98-4.9,1.34.71,3.15,2.06,4.31,2.93,1.36,1.01,2.66,2.1,3.99,3.47,2.52,2.58,4.28,5.16,5.96,9.01,3.63,8.34,4.26,14.87,5.21,24.77.53-1.47.81-3.74,1.41-5.45.63-1.8,1.17-3.65,1.72-5.49,1.05-3.52,2.62-6.89,3.99-10.22,2.87-6.98,5.14-13.56,6.82-21.8,2.53-12.34.58-25.7-3.09-37.46-3.39-10.86-9.17-18.17-18.05-24.73-5.27-3.89-11.12-5.38-17.55-11.06-1.26-1.12-2.13-2.12-3.64-3.3-1.26-.98-2.46-2.7-4.16-3.02-3.49-.66-6.79,4.51.88,12.97,1.4,1.54,2.37,2.21,3.64,3.59,1.81,1.96,6.8,4.61,6.6,7.92-7.83,1.65-14.21-5.8-19.3-10.2l-5.57-5.66c-4.07-4.76-6.72-11.74-8.23-18.25-.48-2.08-.86-4.02-1.62-5.86-.91-2.2-2.67-6.05-5.79-5.1-3.97,1.21-.51,10.91.34,15.11.82,4.08,1.97,8.14,3.12,12.1,3.45,11.86,7.39,21.37,16.91,28.28l4.29,3.2c6.32,4.54,15.57,7.01,23.3,14.66,4.23,4.19,9.38,12.08,10.16,20.04-3.64-1.4-6.54-6.59-25.34-9.95-5.27-.94-10.22-1.78-15.83-1.88-13.88-.26-16.8.39-27.46-8.03-3.68-2.91-7.7-8.04-10.34-11.85-1.89-2.72-3.28-5.53-4.96-8.4l-6-11.6c.1.68,3.43,4.96,4.37,6.54l4.13,7.1c1.79,3.3,7.45,11.28,10.08,12.41.76-2.66,2.3-11.79,2.6-14.73.26-2.57.28-5.91-1.15-7.63-2.08-2.51-4.49.6-5.86.82-.57-3.69.05-15.72-5.27-16.75-2.67-.52-4.11,1.29-5.59,1.91-1.73-1.94-2.26-3.84-4.38-5.52-4.66-3.71-10.9-6.05-11.07,2.58-.08,3.65.86,5.65,1.24,8.86-1.66,1.02-3.79,1.51-4.51,3.7-1.49,4.56,3.41,7.74,6.68,9.4,1.69.86,3.85,2.05,4.23,3.97-1.29.94-3.44,1.63-3.24,4.03.15,1.81,2.11,3.77,3.11,4.46,4.24,2.95,11.06,3.82,15.04,7.42,2.42,2.19,9.66,9.35,12.02,10.43-1.42.07-9.77-2.57-11.49-3.2-8.9-3.25-16.85-8.2-23.24-14.98-.66-.7-.97-1.15-1.72-2.01-6.7-7.64-10.74-14.01-10.59-24.3.06-3.88,2.8-18.86-3.62-18.84-3.03,0-3.19,2.51-5.08,2.75-2.22-5.12-.1-11.37-3.55-17.51-1.1-1.96-3.25-4.72-6.21-4.21-4.13.7-3.86,4.34-5.49,5.13-1.51-1.22-6.43-18.99-13.15-14.71-2.03,1.3-3.22,3.37-4.77,5.19"/>
    <path class="cls-6" d="M420.79,48.41l-5.96-9.43c-6.53-9.13-15.58-16.05-25.52-21.3-10.07-5.32-27.46-7.77-39.4-4.21-7.87,2.34-14.94,5.03-21.17,10.1l-2.08,1.65c-2.81,2.44-5.45,5.38-7.76,8.03-3.01,3.46-5.19,8.31-7.05,12.46-8.19,18.29-2.99,42.78,4.38,58.42-3.09-.89-7.57-3.37-10.24-4.74-4.69-2.4-9.39-5.62-13.09-9.35-2.2-2.22-3.73-3.49-5.46-5.76l-1.69-2.07c-.73-.87-.88-1.35-1.54-2.17-.65-.82-1.09-1.34-1.61-2.1.79.48,1.76,1.75,2.37,2.39,2.12,2.19,4.5,5.03,6.84,7.06.35.3.4.3.73.61,2.08,1.88,9.46,7.68,11.82,8.29l-1.34-7.75c-.4-3.7-.41-13.63-2.95-15.83-3.26-2.83-4.51.84-6.27,1.15-2.02-3.46-3.55-15.34-9.09-15.1-1.83.08-2.61,1.43-3.7,2.41-.91.83-.16-.02-.63.89-3.08-.17-9.68-7.35-13.92-3.69-4.05,3.49,1.96,11.78,2.02,15.21-1.48,1.4-3.53,1.93-3.83,4.64-.9,8.13,11.77,7.03,14.5,11.75-.79,1.62-4.62,2.8-1.62,6.35,2.99,3.53,14.77,2.72,23.19,5.98,6.92,2.67,14.16,3.97,18.99,9.85,4.43,5.39,8.95,10.48,13.15,15.99l23.63,24.79c1.63,1.37,3.27,3.68,5.12,4.63-.61-3.22-4.03-9.36-5.37-12.68-1.87-4.62-3.35-8.56-4.8-13.65-4.43-15.59-6.45-12.79-13.17-23.71-10.03-16.29-15.93-39.68-7.53-58.15.49-1.08.93-1.93,1.54-3.01.66-1.18,1.04-1.9,1.64-2.89.83-1.37,2.92-3.99,4.12-5.22,1.49-1.53,3.08-3.09,4.79-4.31,2.04-1.46,3.33-2.34,5.73-3.6,19.86-10.43,38.9-6.06,55.87,6.73l2.41,2.13c4.1,3.91,7.44,7.77,10.71,12.28.93,1.29,2.89,4.71,4.02,5.35.94-.94,2.19-4.61,2.85-6,2.36-4.97,5.04-9.74,8.78-13.66,4.08-4.27,6.88-7.21,12.07-10.38,12.67-7.74,29.9-9.23,43.61-4.15,7.13,2.64,15.85,8.95,20.24,15.61,4.1,6.22,8.44,17.17,8.86,26.85.6,13.95-2.85,24.95-8.44,36.14-1.97,3.96-4.62,7.58-5.96,11.93-1.32,4.28-1.48,10.13-2.85,15.1-1.32,4.82-1.88,8.68-3.74,14.39-.76,2.35-1.8,4.48-2.26,7.1l4.53-5.07c3.03-3.71,5.16-7.47,8.46-10.8.84-.84,1.27-1.51,2.2-2.61,1.87-2.21,4.68-7.12,5.89-8.54.88-1.03,1.32-1.61,2.06-2.76.64-.99,1.33-1.66,2.04-2.75,3.85-5.89,6.82-12.34,10.55-18.35.88-1.42,2.31-2.54,3.68-3.55l4.28-2.92c2.93-2.05,5.81-3.67,9.2-5.24,8.84-4.1,16.02-2.56,20.68-8.2,2.79-3.37-.21-4.39-1.62-6.37.51-1.71,2.65-2.51,4.47-3.33,2-.91,3.51-1.89,4.84-3.19,5.56-5.47-1.33-9.2-1.93-9.78.34-4.24,4.39-12.04-.42-14.94-4.32-2.6-8.95,4.48-12.77,4.94-1.32-1.29-2.02-2.83-4.46-2.52-6.01.76-4.46,11.79-6.77,15.09-1.71-1.88-3.81-2.37-5.78-.33-3.18,3.29-1.48,10.82-1,15,.33,2.87.39,5.34.48,8.3,1.4-.44,5.11-4.77,6.53-6.34l1.81-1.93c2.89-2.68,5.17-6.33,7.42-9.43.34-.47.62-.88.96-1.45l1.2-1.42c-.43,1.35-1.87,3.71-2.57,4.88-2.35,3.91-6.41,9.81-9.57,12.87-1.23,1.19-2.53,2.53-3.78,3.45l-8.63,6.34c-1.37.92-2.93,2.05-4.43,3.13.17-1.75.9-4.64,1.36-6.25,3.04-10.78,2.95-24.27.75-35.21-1.21-6.02-3.24-11.72-6.31-16.7-1.04-1.69-2.01-3.04-3.07-4.7-5.79-9.06-16.82-15.91-26.7-19.83-11.15-4.43-27.61-4.58-39.37-.12-8.77,3.32-17.04,8.34-23.38,15.45-1.36,1.53-2.24,2.6-3.54,4.19-3.62,4.44-6.49,9.16-8.98,14.28-.87,1.79-1.36,3.58-2.25,5.4"/>
    <path class="cls-7" d="M438.02,398.48h22.98c-.61-4.44-1.76-6.74-.87-11.68.64-3.54,1.77-7,3.25-9.62.78-1.39,1.52-3.09,2.1-4.58,2.26-5.77,3.58-5.61,4.68-14.53,1.07-8.71-2.59-14.35-6.43-19.35-.96-1.25-1.98-2.22-2.96-3.46-2.22-2.81-6.73-7.62-10.08-9.25-2.16,7.56-4.28,8.55,1.52,17.29.95,1.43,1.79,3.06,2.74,4.75,5.35,9.46,5.2,13.3.54,22.6-.98-2.8,2.2-7.83-3.54-16.67-1.41-2.17-2.83-3.89-4.63-5.79l-4.86-5.41c-1.21,1.08-2.8,9.42-3.02,11.75-.27,2.83.33,12.9-.19,14.29-2.43-.71-4.19-7.99-4.82-11.49-3.1-17.17,9.54-27.27,7.61-39.95-2.08.11-4.79,6.46-5.93,8.47-1.72,3.04-4.01,5.56-5.91,8.53-1.99,3.12-3.42,5.78-5.18,9.52-1.83,3.88-2.43,7.88-2.02,12.33.88,9.68,5.08,14.06,9.14,19.99,1.03,1.5,2.09,2.88,2.88,4.61.75,1.64,1.41,3.21,2.05,5.17,1.49,4.6,1.58,7.53.96,12.51"/>
    <g class="cls-10">
      <rect class="cls-19" x="424.03" y="68.73" width="47.47" height="84.57"/>
    </g>
    <g class="cls-17">
      <rect class="cls-1" x="393.51" y="56.56" width="27.91" height="49.65"/>
    </g>
    <g class="cls-13">
      <rect class="cls-9" x="380.09" y="102.01" width="42.85" height="36.9"/>
    </g>
    <path class="cls-8" d="M479.88,90.82c.98-2.55,2.85-4.49,4.6-6.43.93-1.04,4.41-4.48,5.8-5.07-.1.2-4.64,5.07-6.15,7.14-1.05,1.45-4,6.19-3.92,8.32.03.79-.06.33.2.89,1.31-.57,2.14-1.48,3.82-2.17,1.57-.64,3.02-.98,4.57-1.59,5.7-2.26,9.58-6.96,11.55-12.77.71-2.08,2.32-7.86,2.08-10.35-.12-1.25-.39-1.33-1.62-1.22-3.44.31-13.37,4.14-15.72,5.66-4.24,2.74-5.8,7.05-6.03,12.17-.06,1.35-.01,3.53.51,4.82.26.63.06.26.31.6"/>
    <path class="cls-6" d="M367.44,99.95c.09-1.33-.87-2.46-1.65-3.39-2.82-3.34-5.4-5.7-8.07-8.73,1.85.79,7.11,5.69,8.52,7.21.57.61,1.81,2.29,2.58,2.56,1.22-7.1-1.77-12-7-16.06-3.72-2.89-12.75-5.86-17.76-5.5-.11,3.61.96,7.16,2.15,9.9.71,1.62,1.08,2.42,1.99,3.85l2.67,3.5c2.98,2.79,12.52,8.22,16.57,6.65"/>
    <path class="cls-6" d="M458.24,58.43c1.27-.72,5.78-6.25,7.23-8.04.36-.44,2-2.73,2.27-2.91-.99,2.91-6.76,9.33-8.18,13.85,4.72-1.06,12.31-4.67,14.92-9.12,3.1-5.29,3.95-16.85,1.38-20.05-1.77.05-6.05,2.77-7.51,3.73-7.72,5.07-13.15,11.58-10.12,22.53"/>
    <path class="cls-6" d="M382.42,66.55c-.38-1.24-3.43-4.98-4.75-6.99-.78-1.19-1.57-2.39-2.3-3.58-.48-.78-1.91-3.14-2.11-3.76.61.34,4.51,5.35,4.97,5.95.81,1.05,1.41,1.76,2.43,2.91l2.69,2.94c2.38-4.03.55-12.4-4.04-17.08-2.05-2.09-7.56-4.9-10.58-6.27-.75-.34-3.44-1.58-4.09-1.69-1.11,1.81-.6,8.2-.21,10.53.56,3.3,1.61,6.14,3.03,8.49,2.93,4.85,9.68,7.99,14.95,8.56"/>
    <path class="cls-6" d="M336.44,65.19c.57-1.76,4.49-7.07,5.94-8.72.77-.87,1.94-2.2,2.48-2.57l-3.44,5.34c-.9,1.24-2.42,4.27-2.91,5.8,3.52-.13,9.15-3.19,11.58-7.03,2.26-3.59,4.34-9.9,2.47-15.08-3.02-.18-14.58,5.62-16.28,13.36-.31,1.41-.45,2.75-.5,4.24-.03.82,0,1.61.02,2.43.07,1.9.12,1.68.63,2.23"/>
    <path class="cls-6" d="M504.14,56.79c-1.56-4.18-6.68-8.91-7.69-10.35l4.79,4.27c.97.91,1.52,1.46,2.27,2.24l1.62,2.16c.34.37.15.18.49.46.4-6.39-.55-10.64-5.07-14.11-2.09-1.6-9.9-6.88-13.04-5.92-.86,7.28,2.89,15.34,9.47,18.87,1.47.79,5.14,2.36,7.16,2.37"/>
    <path class="cls-6" d="M318.74,123.1c-1.62-2.58-8.67-3.96-10.63-4.73-.08-.03-.31-.14-.38-.17l-.36-.2c4.21.2,7.95,1.75,11.29,2.63-.28-1.57-2.12-4.74-3.03-5.74-3-3.32-8.85-4.17-13.43-3.5-1.72.25-5.67,1.51-6.34,2.59-.59.95-.2,1.24.85,2.98,3.17,5.19,8.22,8.36,14.46,7.87,1.83-.14,6.18-1.04,7.56-1.73"/>
    <path class="cls-6" d="M297.44,58.26c-.33-4.22-1.38-7.42-1.11-11.84.56,2.1,2.26,10.04,3.35,11.35,2.98-2.73,4.26-9.32,1.97-13.9-1.5-3-5.75-9.58-8.74-9.86-3.39,5.23-4.94,15.29-.84,20.51,1.1,1.4,3.42,3.22,5.37,3.74"/>
    <path class="cls-6" d="M370.12,188.7c-.7-1.71-7.75-9.75-9.39-11.53,1.73,1.27,3.53,2.59,5.09,4.13,1.07,1.05,3.86,4.23,4.66,4.59.89-8.21-4.57-13.38-10.93-15.97-1.58-.64-6.49-2.48-6.88-.01-.76,4.83,2.65,11.02,4.89,12.95,3.22,2.77,5.83,3.13,9.22,4.42,1.25.47,2.06,1.09,3.33,1.42"/>
    <path class="cls-6" d="M540.53,43.92c1-2.51,2-10.05,2.68-11.22.39,4.16-.79,8.71-.25,12.09,1.51-.25,3.77-2.55,4.65-3.97,4.39-7-.12-17.75-2.77-20.11-2.14.61-6.12,6.91-7.14,9.96-1.53,4.56-.62,10.46,2.82,13.24"/>
    <path class="cls-6" d="M532.4,106.92c2.08-.84,11.44-3.99,13.14-4.06-3.54,1.74-11.77,4.54-13.74,7.12,7.74.7,16.02,2.98,21.01-7.26.38-.78,1.25-2.27,1.46-2.88-1.65-2.44-10.35-3.11-13.92-1.84-3.31,1.18-7.82,6.9-7.95,8.92"/>
    <path class="cls-6" d="M490.08,178.09c.67-.5,2.95-4.16,4.69-5.87l3.19-3.27-4.65,7.41c-.37.54-.54.93-.89,1.54-.53.92-1.43,2.39-1.62,3.5.99-.38,1.65-1.17,2.66-1.68,1.08-.54,1.95-.88,3.08-1.46,3.69-1.9,7.04-5.19,8.34-9.33.46-1.47,1-6.47.76-8-.26-1.61-.83-1.6-2.49-1.24-1.3.28-2.36.62-3.43,1.16-2.14,1.08-3.59,2.45-5.21,3.87-1.17,1.02-2.98,2.93-3.81,5.03-.77,1.95-1.24,6.09-.62,8.33"/>
    <path class="cls-8" d="M432.29,71.48c.88-1.01,1.7-3.17,2.51-4.44.49-.78.86-1.35,1.34-2.13l1.41-1.87s.1-.1.16-.14c-.82,3.15-3.89,7.01-2.96,10.99,1.1-1,5.54-2.44,7.69-8.29,1.04-2.82,2.89-13.15-.27-13.4-1.22-.1-4.45,2.37-5.15,2.93-1.45,1.16-2.74,2.45-3.94,4.08-1.94,2.66-3.91,9.74-.79,12.29"/>
    <path class="cls-6" d="M387.68,93.5c-1.08-2.87-4.18-4.55-5.46-7.54,1.6.64,5.73,6.44,7.42,5.95.94-3.76-1.47-8.62-4.63-11.36-1.71-1.48-3.28-2.17-5.28-3.04-1.48-.64-4.92-1.76-6.81-1.51-.86,5.8,4.21,17.25,14.76,17.49"/>
    <path class="cls-8" d="M375.27,143.94c-.4-1.2-.56-1.21-1.01-2.11-.29-.56-.49-1.21-.79-1.86-1.89-4.04-2.66-9.27-3.02-13.75-.37-4.54-.64-9.53-3.48-13.17-.88-1.13-1.42-2.19-3.2-2.57-3.48,8.8,4.44,30.04,11.51,33.45"/>
    <path class="cls-8" d="M479.81,137.43c1.2-.86,3.71-5.35,4.4-6.8,1.16-2.45,2.35-5.01,2.88-8.09.69-4.08,1.97-17.23-1.06-19.48-3.81,1.6-4.44,11.86-4.36,15.78.07,3.34.39,6.85.12,10.17-.36,4.42-1.47,5.84-1.97,8.43"/>
    <path class="cls-8" d="M377.91,144.44c-1.75-3.38-1.94-9.27-2.1-13.58-.09-2.34.17-5.35-.15-7.57-.33-2.26-2.12-4.92-3.82-2.61-2.4,3.26-.29,14.39,2.69,19.27.77,1.26,2.26,4.13,3.39,4.49"/>
    <path class="cls-8" d="M476.81,139.88c3.99-2.9,6.76-24.12,1.46-26.21-.72.54-.99,1.01-1.25,2.31-.48,2.38.48,7.77.76,10.18.83,7.11-.47,8.9-.97,13.72"/>
    <path class="cls-8" d="M406.21,282.85l-105.44,16.47,96.95-6.79c4.06-2.31,7.16-5.33,8.49-9.68"/>
    <path class="cls-8" d="M470.41,279.34c33.59-.97,66.84,1.04,100.04,3.41l-91.11,3.91c-4.21-1.62-7.07-4.13-8.93-7.32"/>
  </g>
  <g>
    <rect class="cls-15" x="5" y="425.02" width="20" height="1"/>
    <rect class="cls-15" x="825" y="425.02" width="20" height="1"/>
  </g>
  <text class="cls-12" transform="translate(30.68 438.66)"><tspan x="0" y="0">HE</tspan><tspan class="cls-3" x="69.04" y="0">N</tspan><tspan x="102.6" y="0">RIKSEN </tspan><tspan class="cls-11" x="291.69" y="0">F</tspan><tspan x="317.52" y="0">AMI</tspan><tspan class="cls-4" x="409.63" y="0">L</tspan><tspan class="cls-18" x="436.24" y="0">Y</tspan><tspan class="cls-2" x="464.12" y="0" xml:space="preserve"> GIVI</tspan><tspan class="cls-21" x="578.63" y="0">N</tspan><tspan x="611.9" y="0">G FU</tspan><tspan class="cls-16" x="719.31" y="0">N</tspan><tspan class="cls-2" x="752.87" y="0">D</tspan></text>
</svg>